<svg xmlns="http://www.w3.org/2000/svg" viewBox="0 0 600 600"><g fill="#ffc31c"><path d="M 465,550 L 465,552 L 466,552 L 467,551 L 466,550 Z"/><path d="M 404,547 L 403,546 L 403,547 L 402,548 L 401,547 L 401,548 L 403,548 Z"/><path d="M 480,544 L 478,544 L 478,545 L 479,546 L 480,545 Z"/><path d="M 385,544 L 383,544 L 383,546 L 384,546 L 385,545 Z"/><path d="M 481,539 L 481,540 L 483,542 L 484,542 L 484,540 L 482,540 Z"/><path d="M 465,537 L 463,537 L 463,538 L 462,539 L 461,539 L 462,540 L 462,539 L 463,538 L 464,538 Z"/><path d="M 447,537 L 447,538 L 448,538 L 449,539 L 450,539 L 450,538 L 449,538 L 448,537 Z"/><path d="M 388,537 L 388,540 L 389,539 L 390,540 L 391,540 L 392,541 L 392,542 L 393,542 L 394,541 L 392,541 L 391,540 L 390,540 L 389,539 L 389,538 Z"/><path d="M 363,539 L 364,540 L 365,540 L 366,539 L 367,539 L 366,539 L 365,538 L 365,537 L 364,537 L 364,538 Z"/><path d="M 427,535 L 428,536 L 427,537 L 426,537 L 426,538 L 427,539 L 427,540 L 428,540 L 428,539 L 427,539 L 426,538 L 428,536 L 428,535 Z"/><path d="M 490,534 L 489,534 L 488,535 L 488,536 L 490,536 Z"/><path d="M 338,534 L 337,535 L 336,535 L 336,536 L 337,536 L 338,535 Z"/><path d="M 357,534 L 358,535 L 358,536 L 360,534 L 361,534 L 360,533 L 358,533 Z"/><path d="M 449,532 L 448,533 L 448,534 L 450,536 L 451,536 L 452,535 L 452,534 L 451,533 L 451,532 Z"/><path d="M 353,532 L 353,534 L 354,535 L 354,536 L 355,535 L 355,533 L 354,532 Z"/><path d="M 443,531 L 441,531 L 441,535 L 442,535 L 442,534 L 441,533 L 442,532 L 443,532 Z"/><path d="M 369,531 L 367,533 L 366,533 L 366,534 L 367,534 L 368,533 L 369,533 Z"/><path d="M 389,530 L 389,531 L 388,532 L 388,534 L 389,534 Z"/><path d="M 374,530 L 374,532 L 375,533 L 374,534 L 374,537 L 375,538 L 376,538 L 375,538 L 374,537 L 374,536 L 376,534 L 377,535 L 378,535 L 379,536 L 379,538 L 381,536 L 382,537 L 382,538 L 382,537 L 381,536 L 381,534 L 379,534 L 378,535 L 377,535 L 376,534 L 376,531 L 375,530 Z"/><path d="M 332,529 L 332,530 L 334,530 L 335,531 L 336,531 L 335,530 L 335,529 Z"/><path d="M 355,528 L 355,529 L 356,530 L 357,529 L 356,528 Z"/><path d="M 502,526 L 502,527 L 503,527 L 504,528 L 503,529 L 503,530 L 504,531 L 504,529 L 505,528 L 505,527 L 504,526 Z"/><path d="M 333,526 L 334,526 L 335,527 L 336,527 L 336,525 L 334,525 Z"/><path d="M 439,524 L 438,524 L 437,525 L 435,525 L 436,526 L 437,525 L 438,525 Z"/><path d="M 505,522 L 505,524 L 506,524 L 507,523 L 506,522 Z"/><path d="M 465,520 L 465,521 L 466,521 L 467,522 L 467,523 L 469,523 L 470,524 L 473,524 L 473,523 L 472,522 L 467,522 L 466,521 L 466,520 Z"/><path d="M 343,518 L 343,520 L 344,521 L 344,518 Z"/><path d="M 478,517 L 478,519 L 481,519 L 481,517 Z"/><path d="M 475,517 L 474,517 L 474,518 L 472,520 L 471,519 L 471,520 L 472,520 L 473,519 L 474,519 L 475,518 Z"/><path d="M 431,517 L 430,517 L 430,518 L 429,519 L 428,518 L 427,518 L 427,519 L 426,520 L 425,519 L 424,519 L 424,520 L 427,520 L 428,519 L 429,519 L 430,518 L 431,519 L 431,520 L 430,521 L 430,522 L 429,523 L 427,523 L 426,522 L 423,522 L 422,523 L 422,524 L 423,525 L 425,525 L 426,524 L 427,524 L 428,525 L 425,528 L 423,528 L 423,530 L 424,529 L 428,529 L 429,530 L 430,529 L 432,529 L 429,529 L 428,528 L 428,526 L 429,525 L 429,523 L 430,522 L 430,521 L 431,520 L 432,521 L 433,521 L 431,519 L 432,518 Z"/><path d="M 464,516 L 464,517 L 465,517 L 466,518 L 467,518 L 467,516 Z"/><path d="M 423,514 L 423,515 L 424,515 L 425,516 L 424,517 L 425,517 L 426,516 L 426,515 L 425,516 L 424,515 L 424,514 Z"/><path d="M 404,512 L 404,513 L 403,514 L 402,514 L 403,515 L 403,516 L 404,516 L 405,517 L 405,518 L 403,520 L 402,520 L 401,521 L 401,522 L 402,523 L 403,523 L 405,525 L 404,526 L 402,526 L 401,525 L 399,525 L 398,524 L 398,523 L 398,527 L 399,527 L 400,526 L 402,526 L 403,527 L 402,528 L 403,528 L 404,527 L 405,527 L 406,528 L 406,529 L 405,530 L 404,530 L 404,531 L 405,531 L 406,532 L 405,533 L 403,533 L 406,533 L 408,531 L 409,531 L 410,530 L 411,531 L 411,533 L 412,532 L 413,533 L 414,533 L 414,532 L 413,531 L 413,530 L 414,529 L 415,530 L 416,530 L 417,529 L 418,529 L 416,527 L 418,525 L 420,525 L 420,524 L 418,524 L 417,523 L 418,522 L 418,521 L 415,521 L 414,522 L 413,522 L 413,523 L 414,523 L 415,522 L 416,522 L 417,523 L 413,527 L 413,528 L 414,529 L 413,530 L 412,530 L 410,528 L 409,528 L 408,527 L 407,527 L 406,526 L 407,525 L 407,521 L 406,520 L 405,520 L 404,519 L 405,518 L 406,518 L 406,516 L 407,515 L 408,515 L 410,513 L 411,513 L 411,512 L 410,512 L 409,513 L 408,513 L 408,514 L 405,517 L 403,515 L 405,513 Z"/><path d="M 464,508 L 464,509 L 467,509 L 467,508 Z"/><path d="M 493,507 L 492,508 L 492,509 L 491,510 L 491,511 L 492,511 L 493,512 L 493,515 L 493,512 L 491,510 L 492,509 L 494,509 L 494,508 Z"/><path d="M 481,505 L 484,505 L 485,506 L 485,507 L 485,506 L 484,505 L 484,504 L 482,504 Z"/><path d="M 505,503 L 505,505 L 506,506 L 507,505 L 506,504 L 506,503 Z"/><path d="M 472,497 L 471,497 L 471,499 L 470,500 L 469,500 L 469,501 L 468,502 L 467,501 L 467,502 L 469,504 L 470,504 L 470,500 L 472,498 Z"/><path d="M 459,497 L 459,498 L 461,500 L 462,499 L 461,498 L 460,498 Z"/><path d="M 439,495 L 439,496 L 441,496 L 441,495 Z"/><path d="M 454,494 L 454,495 L 455,494 L 458,494 L 459,495 L 461,495 L 461,494 L 460,493 L 459,494 L 458,494 L 457,493 L 455,493 Z"/><path d="M 482,492 L 481,492 L 481,493 L 482,493 L 483,494 L 482,495 L 476,495 L 475,496 L 475,497 L 476,498 L 476,499 L 478,501 L 480,499 L 479,498 L 477,498 L 476,497 L 477,496 L 480,496 L 481,495 L 484,495 L 484,494 L 483,494 L 482,493 Z"/><path d="M 496,492 L 497,493 L 498,492 L 499,492 L 499,491 L 497,491 Z"/><path d="M 475,489 L 474,489 L 474,490 L 475,490 L 476,491 L 475,492 L 473,492 L 473,493 L 474,494 L 476,492 L 476,491 L 475,490 Z"/><path d="M 467,488 L 466,489 L 467,490 L 468,490 L 469,489 L 468,489 Z"/><path d="M 454,486 L 453,487 L 450,487 L 449,488 L 452,488 L 453,487 L 454,487 Z"/><path d="M 447,486 L 447,487 L 446,488 L 445,487 L 445,488 L 448,491 L 448,490 L 446,488 L 448,486 Z"/><path d="M 501,469 L 502,470 L 503,470 L 504,471 L 506,471 L 504,469 L 503,469 L 502,468 Z"/><path d="M 512,467 L 512,468 L 513,468 L 514,469 L 515,469 L 515,468 L 514,468 L 513,467 Z"/><path d="M 483,467 L 483,469 L 484,470 L 485,469 L 486,470 L 487,470 L 484,467 Z"/><path d="M 507,465 L 506,466 L 506,468 L 507,468 L 508,469 L 509,469 L 510,468 L 510,466 L 509,466 L 508,465 Z"/><path d="M 508,453 L 508,455 L 513,455 L 513,454 L 512,454 L 511,455 L 509,453 Z"/><path d="M 478,452 L 477,453 L 476,453 L 476,454 L 475,455 L 476,454 L 478,454 Z"/><path d="M 485,451 L 484,451 L 483,452 L 483,453 L 482,454 L 482,455 L 482,454 L 483,453 L 484,453 L 485,452 Z"/><path d="M 504,450 L 507,450 L 506,449 L 505,449 Z"/><path d="M 495,433 L 495,434 L 497,434 L 497,433 Z"/><path d="M 505,431 L 504,430 L 503,430 L 503,431 L 502,432 L 502,433 L 503,433 L 502,432 L 503,431 Z"/><path d="M 508,425 L 506,427 L 506,429 L 507,430 L 509,428 L 509,426 Z"/><path d="M 535,420 L 535,422 L 536,423 L 537,423 L 538,422 L 544,422 L 545,421 L 545,420 L 544,420 L 543,419 L 537,419 L 536,420 Z"/><path d="M 513,419 L 513,421 L 514,422 L 517,422 L 517,420 L 515,418 L 514,419 Z"/><path d="M 507,419 L 506,418 L 505,418 L 504,419 L 504,420 L 506,420 Z"/><path d="M 544,414 L 544,415 L 545,416 L 546,416 L 547,415 L 546,414 Z"/><path d="M 513,410 L 510,413 L 511,413 L 512,412 L 513,413 L 513,416 L 515,416 L 515,415 L 513,413 L 514,412 L 514,410 Z"/><path d="M 530,407 L 528,407 L 528,408 L 529,409 L 530,408 Z"/><path d="M 511,399 L 508,399 L 507,400 L 507,402 L 508,403 L 509,403 L 509,402 L 511,400 Z"/><path d="M 444,391 L 444,392 L 445,393 L 446,392 L 445,391 Z"/><path d="M 458,385 L 456,387 L 456,388 L 457,388 L 458,389 L 459,389 L 459,388 L 460,387 L 460,386 L 459,385 Z"/><path d="M 456,378 L 454,380 L 455,380 L 456,381 L 457,381 L 456,381 L 455,380 L 456,379 L 457,379 L 457,378 Z"/><path d="M 473,376 L 472,375 L 471,376 L 470,376 L 471,377 L 472,377 Z"/><path d="M 449,365 L 448,366 L 446,366 L 445,367 L 444,367 L 444,369 L 446,371 L 446,373 L 447,374 L 447,375 L 446,376 L 445,376 L 442,379 L 442,380 L 443,381 L 443,383 L 444,384 L 443,385 L 442,385 L 441,386 L 439,386 L 441,388 L 440,389 L 441,389 L 442,388 L 443,388 L 444,389 L 444,388 L 446,386 L 448,386 L 449,385 L 450,385 L 449,385 L 448,386 L 447,385 L 445,385 L 444,384 L 445,383 L 446,383 L 446,381 L 448,379 L 449,379 L 449,378 L 446,378 L 445,377 L 446,376 L 449,376 L 449,375 L 451,373 L 449,371 L 448,371 L 447,370 L 447,368 L 449,366 Z"/><path d="M 434,362 L 433,362 L 433,363 L 434,364 L 432,366 L 434,366 L 435,367 L 435,368 L 434,369 L 432,369 L 432,370 L 431,371 L 431,372 L 430,373 L 431,373 L 435,369 L 435,368 L 436,367 L 435,366 L 436,365 L 436,363 L 435,364 L 434,363 Z"/><path d="M 308,45 L 292,45 L 220,118 L 206,169 L 161,179 L 114,205 L 81,237 L 52,287 L 40,338 L 46,405 L 67,453 L 122,510 L 120,533 L 138,550 L 160,550 L 174,535 L 209,542 L 270,538 L 331,511 L 334,515 L 324,521 L 329,526 L 346,506 L 349,523 L 356,523 L 350,519 L 353,513 L 359,514 L 360,531 L 365,530 L 363,521 L 369,528 L 377,522 L 381,531 L 392,527 L 393,537 L 410,540 L 414,536 L 402,537 L 393,528 L 393,517 L 408,498 L 408,507 L 419,511 L 414,519 L 422,520 L 416,515 L 429,510 L 449,529 L 450,522 L 435,517 L 438,512 L 448,514 L 447,520 L 452,513 L 457,517 L 454,521 L 456,514 L 441,502 L 450,496 L 455,502 L 452,494 L 436,500 L 432,493 L 437,488 L 440,493 L 436,484 L 442,477 L 434,483 L 428,479 L 436,473 L 447,477 L 441,484 L 448,479 L 451,484 L 446,475 L 452,476 L 449,469 L 457,465 L 456,482 L 461,482 L 456,485 L 464,477 L 460,474 L 473,473 L 476,486 L 484,488 L 476,463 L 484,461 L 468,456 L 468,466 L 461,461 L 437,465 L 431,459 L 444,456 L 454,463 L 452,454 L 465,458 L 458,454 L 487,441 L 496,430 L 494,408 L 499,404 L 481,399 L 490,398 L 484,392 L 441,399 L 431,375 L 421,376 L 428,366 L 418,379 L 414,366 L 424,363 L 416,363 L 411,315 L 395,270 L 364,226 L 315,189 L 331,150 Z"/></g></svg>